<?xml version="1.0" encoding="utf-8"?>
<!-- Generator: Adobe Illustrator 26.0.0, SVG Export Plug-In . SVG Version: 6.00 Build 0)  -->
<svg version="1.1" id="Layer_1" xmlns="http://www.w3.org/2000/svg" xmlns:xlink="http://www.w3.org/1999/xlink" x="0px" y="0px"
	 viewBox="0 0 1000 1000" style="enable-background:new 0 0 1000 1000;" xml:space="preserve">
<style type="text/css">
	.st0{fill:none;stroke:#FCAE28;stroke-width:30.5305;stroke-miterlimit:10;}
	.st1{fill:#fff;}
	.st2{fill:#FCAE28;}
</style>
<g>
	<circle class="st0" cx="500" cy="500" r="481"/>
	<g>
		<path class="st1" d="M526.52,509.3c1.04,63.91,2.09,127.82,3.13,191.73c30.29,0,60.58,0,90.87,0
			c-3.13-56.79-6.27-113.58-9.4-170.37c67.89-84.22,135.79-168.44,203.68-252.66c-33.42,0-66.85,0-100.27,0
			C651.87,355.09,589.19,432.2,526.52,509.3z"/>
		<path class="st2" d="M178.69,701.03c5.22-96.99,10.45-193.97,15.67-290.96c26.11,32.03,52.23,64.06,78.34,96.1
			c-1.04,64.95-2.09,129.91-3.13,194.86C239.28,701.03,208.99,701.03,178.69,701.03z"/>
		<path class="st2" d="M210.03,277.99c-4.18,39.15-8.36,78.3-12.53,117.45c63.66,77.96,187.95,230.15,199.66,244.49l0.43-103.65
			C335.06,450.18,272.55,364.09,210.03,277.99z"/>
		<path class="st2" d="M591.43,277.99c4.18,39.15,8.36,78.3,12.53,117.45C540.3,473.4,416.02,625.59,404.31,639.93l-0.43-103.65
			C466.4,450.18,528.92,364.09,591.43,277.99z"/>
		<path class="st1" d="M670.67,475.41c-14.62,17.76-29.25,35.51-43.87,53.27c45.96,57.45,91.92,114.9,137.88,172.35
			c28.2,0,56.4,0,84.61,0C789.74,625.82,730.21,550.61,670.67,475.41z"/>
	</g>
</g>
</svg>
